<svg class="eyeClose_svg__icon" viewBox="0 0 1024 1024" xmlns="http://www.w3.org/2000/svg" width="24" height="24" fill="#24AE8F"><defs><style></style></defs><path d="M232.96 177.024l603.307 603.35L791.04 825.6 187.69 222.293l45.227-45.226zm2.048 152.875l45.27 45.312-1.707 1.45C238.976 412.075 200.192 457.045 162.176 512 272.128 670.848 388.48 746.667 512 746.667A301.653 301.653 0 00628.267 723.2l48.341 48.341A368 368 0 01512 810.667c-157.099 0-299.307-99.542-426.667-298.667 47.787-74.71 97.707-135.424 149.675-182.101zM512 213.333c157.099 0 299.307 99.542 426.667 298.667-44.374 69.419-90.582 126.72-138.582 171.947l-45.226-45.27C791.21 604.715 826.837 562.56 861.824 512 751.872 353.152 635.52 277.333 512 277.333c-34.133 0-67.797 5.803-100.864 17.536l-49.323-49.237A365.952 365.952 0 01512 213.333zM387.413 482.39l154.198 154.155a128 128 0 01-154.155-154.155zM512 384a128 128 0 01127.53 139.221L500.78 384.427A129.707 129.707 0 01512 384z"></path></svg>